<svg width="8" height="10" viewBox="0 0 8 10" fill="none" xmlns="http://www.w3.org/2000/svg">
<path d="M2.35547 4.68359C2.2487 4.68359 2.15755 4.64583 2.08203 4.57031C2.00651 4.49219 1.96875 4.40104 1.96875 4.29688C1.96875 4.1901 2.00651 4.09896 2.08203 4.02344C2.15755 3.94792 2.2487 3.91016 2.35547 3.91016C2.46224 3.91016 2.55339 3.94792 2.62891 4.02344C2.70443 4.09635 2.74219 4.1875 2.74219 4.29688C2.74219 4.40365 2.70443 4.49479 2.62891 4.57031C2.55339 4.64583 2.46224 4.68359 2.35547 4.68359ZM2.35547 6.11328C2.24609 6.11328 2.15365 6.07552 2.07812 6C2.00521 5.92448 1.96875 5.83333 1.96875 5.72656C1.96875 5.61979 2.00651 5.52995 2.08203 5.45703C2.15755 5.38151 2.2487 5.34375 2.35547 5.34375C2.46224 5.34375 2.55339 5.38021 2.62891 5.45312C2.70443 5.52604 2.74219 5.61719 2.74219 5.72656C2.74219 5.83333 2.70443 5.92448 2.62891 6C2.55339 6.07552 2.46224 6.11328 2.35547 6.11328ZM2.35547 7.625C2.2487 7.625 2.15755 7.58724 2.08203 7.51172C2.00651 7.4362 1.96875 7.34505 1.96875 7.23828C1.96875 7.13151 2.00651 7.04036 2.08203 6.96484C2.15755 6.88932 2.2487 6.85156 2.35547 6.85156C2.46224 6.85156 2.55339 6.88932 2.62891 6.96484C2.70443 7.04036 2.74219 7.13151 2.74219 7.23828C2.74219 7.34505 2.70443 7.4362 2.62891 7.51172C2.55339 7.58724 2.46224 7.625 2.35547 7.625ZM3.48828 4.60547C3.40234 4.60547 3.32812 4.57552 3.26562 4.51562C3.20573 4.45312 3.17578 4.38021 3.17578 4.29688C3.17578 4.21094 3.20573 4.13672 3.26562 4.07422C3.32812 4.01172 3.40234 3.98047 3.48828 3.98047H5.71875C5.80469 3.98047 5.8776 4.01172 5.9375 4.07422C6 4.13672 6.03125 4.21094 6.03125 4.29688C6.03125 4.38021 6 4.45312 5.9375 4.51562C5.8776 4.57552 5.80469 4.60547 5.71875 4.60547H3.48828ZM3.48828 6.03906C3.39974 6.03906 3.32552 6.00911 3.26562 5.94922C3.20573 5.88672 3.17578 5.8125 3.17578 5.72656C3.17578 5.64062 3.20573 5.56771 3.26562 5.50781C3.32552 5.44792 3.39974 5.41797 3.48828 5.41797H5.71875C5.80469 5.41797 5.8776 5.44792 5.9375 5.50781C6 5.56771 6.03125 5.64062 6.03125 5.72656C6.03125 5.8125 6.0013 5.88672 5.94141 5.94922C5.88151 6.00911 5.80729 6.03906 5.71875 6.03906H3.48828ZM3.48828 7.55078C3.40234 7.55078 3.32812 7.52083 3.26562 7.46094C3.20573 7.39844 3.17578 7.32422 3.17578 7.23828C3.17578 7.15234 3.20573 7.08073 3.26562 7.02344C3.32552 6.96354 3.39974 6.93359 3.48828 6.93359H5.71875C5.80469 6.93359 5.8776 6.96354 5.9375 7.02344C6 7.08073 6.03125 7.15234 6.03125 7.23828C6.03125 7.32422 6 7.39844 5.9375 7.46094C5.8776 7.52083 5.80469 7.55078 5.71875 7.55078H3.48828ZM1.92969 9.75H6.07031C6.49479 9.75 6.82031 9.63542 7.04688 9.40625C7.27344 9.17708 7.38672 8.84766 7.38672 8.41797V2.51562C7.38672 2.08594 7.27474 1.75651 7.05078 1.52734C6.82682 1.29557 6.50911 1.17969 6.09766 1.17969H6.02344C6.03385 1.20573 6.04167 1.23438 6.04688 1.26562C6.05208 1.29427 6.05469 1.32292 6.05469 1.35156V1.80078C6.05469 2.05599 5.97526 2.26693 5.81641 2.43359C5.66016 2.59766 5.45443 2.67969 5.19922 2.67969H2.79688C2.54427 2.67969 2.33854 2.59766 2.17969 2.43359C2.02344 2.26693 1.94531 2.05599 1.94531 1.80078V1.35156C1.94531 1.32292 1.94792 1.29427 1.95312 1.26562C1.95833 1.23438 1.96615 1.20573 1.97656 1.17969H1.89844C1.48958 1.17969 1.17318 1.29557 0.949219 1.52734C0.72526 1.75651 0.613281 2.08594 0.613281 2.51562V8.41797C0.613281 8.84766 0.726562 9.17708 0.953125 9.40625C1.17969 9.63542 1.50521 9.75 1.92969 9.75ZM2.79688 2.21094H5.19922C5.32161 2.21094 5.41667 2.17578 5.48438 2.10547C5.55208 2.03255 5.58594 1.93099 5.58594 1.80078V1.39062C5.58594 1.26042 5.55208 1.16016 5.48438 1.08984C5.41667 1.01693 5.32161 0.980469 5.19922 0.980469H4.89062C4.875 0.746094 4.78125 0.548177 4.60938 0.386719C4.4401 0.222656 4.23698 0.140625 4 0.140625C3.76302 0.140625 3.55859 0.222656 3.38672 0.386719C3.21745 0.548177 3.125 0.746094 3.10938 0.980469H2.79688C2.67708 0.980469 2.58333 1.01693 2.51562 1.08984C2.44792 1.16016 2.41406 1.26042 2.41406 1.39062V1.80078C2.41406 1.93099 2.44792 2.03255 2.51562 2.10547C2.58333 2.17578 2.67708 2.21094 2.79688 2.21094ZM4 1.35938C3.90365 1.35938 3.82161 1.32552 3.75391 1.25781C3.6862 1.1875 3.65234 1.10547 3.65234 1.01172C3.65234 0.915365 3.6862 0.833333 3.75391 0.765625C3.82161 0.697917 3.90365 0.664062 4 0.664062C4.09635 0.664062 4.17839 0.697917 4.24609 0.765625C4.3138 0.833333 4.34766 0.915365 4.34766 1.01172C4.34766 1.10547 4.3138 1.1875 4.24609 1.25781C4.17839 1.32552 4.09635 1.35938 4 1.35938Z" fill="white"/>
</svg>
