<svg width="12" height="14" viewBox="0 0 12 14" fill="none" xmlns="http://www.w3.org/2000/svg">
<mask id="path-1-outside-1_2175_766" maskUnits="userSpaceOnUse" x="-0.672607" y="-0.595215" width="13" height="15" fill="black">
<rect fill="white" x="-0.672607" y="-0.595215" width="13" height="15"/>
<path fill-rule="evenodd" clip-rule="evenodd" d="M8.0877 0.743155L7.53019 1.67237C8.60788 2.22959 9.34759 3.35263 9.34759 4.64733C9.34759 4.77074 9.24761 4.87062 9.12431 4.87062H2.87241C2.74911 4.87062 2.64913 4.77074 2.64913 4.64733C2.64913 3.35263 3.38884 2.22959 4.46653 1.67237L3.90902 0.743155C3.84556 0.637408 3.87979 0.500269 3.98556 0.436812C4.09131 0.373355 4.22845 0.407361 4.2919 0.513353L4.88036 1.49408C5.23063 1.36946 5.60587 1.2981 5.99836 1.2981C6.39085 1.2981 6.76609 1.36946 7.11636 1.49408L7.70482 0.513353C7.76827 0.407361 7.90519 0.373132 8.01116 0.436812C8.11693 0.500269 8.15116 0.637408 8.0877 0.743155ZM5.99836 1.74467C4.47301 1.74467 3.21856 2.92737 3.1042 4.42405H8.89252C8.77816 2.92737 7.52371 1.74467 5.99836 1.74467ZM7.26189 2.94314H7.55629C7.63761 2.94314 7.7035 3.00896 7.7035 3.09035V3.38475C7.7035 3.46611 7.63761 3.53195 7.55629 3.53195H7.26189C7.18059 3.53195 7.11468 3.46611 7.11468 3.38475V3.09035C7.11468 3.00896 7.18059 2.94314 7.26189 2.94314ZM4.73491 2.94314H4.44051C4.35919 2.94314 4.2933 3.00896 4.2933 3.09035V3.38475C4.2933 3.46611 4.35919 3.53195 4.44051 3.53195H4.73491C4.81621 3.53195 4.88212 3.46611 4.88212 3.38475V3.09035C4.88212 3.00896 4.81621 2.94314 4.73491 2.94314ZM2.87241 5.6278H9.12431C9.24761 5.6278 9.34759 5.72767 9.34759 5.85108V10.3549C9.34759 10.9495 8.86332 11.4331 8.26813 11.4331H8.0079V12.7741C8.0079 13.2658 7.60724 13.666 7.11477 13.666C6.6223 13.666 6.22164 13.2658 6.22164 12.7741V11.4331H5.77508V12.7741C5.77508 13.2658 5.37442 13.666 4.88195 13.666C4.38948 13.666 3.98882 13.2658 3.98882 12.7741V11.4331H3.72858C3.1334 11.4331 2.64913 10.9495 2.64913 10.3549V5.85108C2.64913 5.72767 2.74911 5.6278 2.87241 5.6278ZM8.26813 10.9866C8.61713 10.9866 8.90103 10.7031 8.90103 10.3549V6.07436H3.09569V10.3549C3.09569 10.7031 3.37959 10.9866 3.72858 10.9866H4.2121C4.3354 10.9866 4.43538 11.0864 4.43538 11.2099V12.7741C4.43538 13.0197 4.63567 13.2194 4.88195 13.2194C5.12823 13.2194 5.32851 13.0197 5.32851 12.7741V11.2099C5.32851 11.0864 5.4285 10.9866 5.55179 10.9866H6.44492C6.56822 10.9866 6.66821 11.0864 6.66821 11.2099V12.7741C6.66821 13.0197 6.86849 13.2194 7.11477 13.2194C7.36105 13.2194 7.56134 13.0197 7.56134 12.7741V11.2099C7.56134 11.0864 7.66132 10.9866 7.78462 10.9866H8.26813ZM10.8834 5.62922C10.4525 5.62922 10.1019 5.98028 10.1019 6.41158V9.53579C10.1019 9.96708 10.4525 10.3181 10.8834 10.3181C11.3143 10.3181 11.6649 9.96708 11.6649 9.53579V6.41158C11.6649 5.98028 11.3143 5.62922 10.8834 5.62922ZM11.2183 9.53579C11.2183 9.72091 11.0681 9.87158 10.8834 9.87158C10.6987 9.87158 10.5485 9.72091 10.5485 9.53579V6.41158C10.5485 6.22645 10.6987 6.07578 10.8834 6.07578C11.0681 6.07578 11.2183 6.22645 11.2183 6.41158V9.53579ZM0.327393 6.41158C0.327393 5.98028 0.678013 5.62922 1.10888 5.62922C1.53975 5.62922 1.89037 5.98028 1.89037 6.41158V9.53579C1.89037 9.96708 1.53975 10.3181 1.10888 10.3181C0.678013 10.3181 0.327393 9.96708 0.327393 9.53579V6.41158ZM1.10888 9.87158C1.29356 9.87158 1.4438 9.72091 1.4438 9.53579V6.41158C1.4438 6.22645 1.29356 6.07578 1.10888 6.07578C0.924204 6.07578 0.773957 6.22645 0.773957 6.41158V9.53579C0.773957 9.72091 0.924204 9.87158 1.10888 9.87158Z"/>
</mask>
<path fill-rule="evenodd" clip-rule="evenodd" d="M8.0877 0.743155L7.53019 1.67237C8.60788 2.22959 9.34759 3.35263 9.34759 4.64733C9.34759 4.77074 9.24761 4.87062 9.12431 4.87062H2.87241C2.74911 4.87062 2.64913 4.77074 2.64913 4.64733C2.64913 3.35263 3.38884 2.22959 4.46653 1.67237L3.90902 0.743155C3.84556 0.637408 3.87979 0.500269 3.98556 0.436812C4.09131 0.373355 4.22845 0.407361 4.2919 0.513353L4.88036 1.49408C5.23063 1.36946 5.60587 1.2981 5.99836 1.2981C6.39085 1.2981 6.76609 1.36946 7.11636 1.49408L7.70482 0.513353C7.76827 0.407361 7.90519 0.373132 8.01116 0.436812C8.11693 0.500269 8.15116 0.637408 8.0877 0.743155ZM5.99836 1.74467C4.47301 1.74467 3.21856 2.92737 3.1042 4.42405H8.89252C8.77816 2.92737 7.52371 1.74467 5.99836 1.74467ZM7.26189 2.94314H7.55629C7.63761 2.94314 7.7035 3.00896 7.7035 3.09035V3.38475C7.7035 3.46611 7.63761 3.53195 7.55629 3.53195H7.26189C7.18059 3.53195 7.11468 3.46611 7.11468 3.38475V3.09035C7.11468 3.00896 7.18059 2.94314 7.26189 2.94314ZM4.73491 2.94314H4.44051C4.35919 2.94314 4.2933 3.00896 4.2933 3.09035V3.38475C4.2933 3.46611 4.35919 3.53195 4.44051 3.53195H4.73491C4.81621 3.53195 4.88212 3.46611 4.88212 3.38475V3.09035C4.88212 3.00896 4.81621 2.94314 4.73491 2.94314ZM2.87241 5.6278H9.12431C9.24761 5.6278 9.34759 5.72767 9.34759 5.85108V10.3549C9.34759 10.9495 8.86332 11.4331 8.26813 11.4331H8.0079V12.7741C8.0079 13.2658 7.60724 13.666 7.11477 13.666C6.6223 13.666 6.22164 13.2658 6.22164 12.7741V11.4331H5.77508V12.7741C5.77508 13.2658 5.37442 13.666 4.88195 13.666C4.38948 13.666 3.98882 13.2658 3.98882 12.7741V11.4331H3.72858C3.1334 11.4331 2.64913 10.9495 2.64913 10.3549V5.85108C2.64913 5.72767 2.74911 5.6278 2.87241 5.6278ZM8.26813 10.9866C8.61713 10.9866 8.90103 10.7031 8.90103 10.3549V6.07436H3.09569V10.3549C3.09569 10.7031 3.37959 10.9866 3.72858 10.9866H4.2121C4.3354 10.9866 4.43538 11.0864 4.43538 11.2099V12.7741C4.43538 13.0197 4.63567 13.2194 4.88195 13.2194C5.12823 13.2194 5.32851 13.0197 5.32851 12.7741V11.2099C5.32851 11.0864 5.4285 10.9866 5.55179 10.9866H6.44492C6.56822 10.9866 6.66821 11.0864 6.66821 11.2099V12.7741C6.66821 13.0197 6.86849 13.2194 7.11477 13.2194C7.36105 13.2194 7.56134 13.0197 7.56134 12.7741V11.2099C7.56134 11.0864 7.66132 10.9866 7.78462 10.9866H8.26813ZM10.8834 5.62922C10.4525 5.62922 10.1019 5.98028 10.1019 6.41158V9.53579C10.1019 9.96708 10.4525 10.3181 10.8834 10.3181C11.3143 10.3181 11.6649 9.96708 11.6649 9.53579V6.41158C11.6649 5.98028 11.3143 5.62922 10.8834 5.62922ZM11.2183 9.53579C11.2183 9.72091 11.0681 9.87158 10.8834 9.87158C10.6987 9.87158 10.5485 9.72091 10.5485 9.53579V6.41158C10.5485 6.22645 10.6987 6.07578 10.8834 6.07578C11.0681 6.07578 11.2183 6.22645 11.2183 6.41158V9.53579ZM0.327393 6.41158C0.327393 5.98028 0.678013 5.62922 1.10888 5.62922C1.53975 5.62922 1.89037 5.98028 1.89037 6.41158V9.53579C1.89037 9.96708 1.53975 10.3181 1.10888 10.3181C0.678013 10.3181 0.327393 9.96708 0.327393 9.53579V6.41158ZM1.10888 9.87158C1.29356 9.87158 1.4438 9.72091 1.4438 9.53579V6.41158C1.4438 6.22645 1.29356 6.07578 1.10888 6.07578C0.924204 6.07578 0.773957 6.22645 0.773957 6.41158V9.53579C0.773957 9.72091 0.924204 9.87158 1.10888 9.87158Z" fill="#B0B0B0"/>
<path d="M7.53019 1.67237L7.31581 1.54374L7.17879 1.77212L7.41536 1.89444L7.53019 1.67237ZM8.0877 0.743155L7.87334 0.614517L7.87333 0.614533L8.0877 0.743155ZM4.46653 1.67237L4.58135 1.89444L4.81793 1.77212L4.68091 1.54374L4.46653 1.67237ZM3.90902 0.743155L4.12339 0.614533L4.12338 0.614518L3.90902 0.743155ZM3.98556 0.436812L4.11418 0.651189L4.1142 0.651177L3.98556 0.436812ZM4.2919 0.513353L4.07741 0.641771L4.07753 0.641981L4.2919 0.513353ZM4.88036 1.49408L4.66599 1.6227L4.77131 1.79822L4.96416 1.72961L4.88036 1.49408ZM7.11636 1.49408L7.03256 1.72961L7.22541 1.79822L7.33073 1.6227L7.11636 1.49408ZM7.70482 0.513353L7.91919 0.641981L7.91931 0.641771L7.70482 0.513353ZM8.01116 0.436812L7.88239 0.651097L7.88254 0.651189L8.01116 0.436812ZM3.1042 4.42405L2.85492 4.405L2.83437 4.67405H3.1042V4.42405ZM8.89252 4.42405V4.67405H9.16235L9.14179 4.405L8.89252 4.42405ZM8.0079 11.4331V11.1831H7.7579V11.4331H8.0079ZM6.22164 11.4331H6.47164V11.1831H6.22164V11.4331ZM5.77508 11.4331V11.1831H5.52508V11.4331H5.77508ZM3.98882 11.4331H4.23882V11.1831H3.98882V11.4331ZM8.90103 6.07436H9.15103V5.82436H8.90103V6.07436ZM3.09569 6.07436V5.82436H2.84569V6.07436H3.09569ZM7.74456 1.80099L8.30208 0.871777L7.87333 0.614533L7.31581 1.54374L7.74456 1.80099ZM9.59759 4.64733C9.59759 3.25488 8.80186 2.04845 7.64501 1.45029L7.41536 1.89444C8.4139 2.41073 9.09759 3.45039 9.09759 4.64733H9.59759ZM9.12431 5.12062C9.3856 5.12062 9.59759 4.9089 9.59759 4.64733H9.09759C9.09759 4.63259 9.10962 4.62062 9.12431 4.62062V5.12062ZM2.87241 5.12062H9.12431V4.62062H2.87241V5.12062ZM2.39913 4.64733C2.39913 4.9089 2.61112 5.12062 2.87241 5.12062V4.62062C2.8871 4.62062 2.89913 4.63259 2.89913 4.64733H2.39913ZM4.35171 1.45029C3.19486 2.04845 2.39913 3.25488 2.39913 4.64733H2.89913C2.89913 3.45039 3.58282 2.41073 4.58135 1.89444L4.35171 1.45029ZM3.69464 0.871777L4.25216 1.80099L4.68091 1.54374L4.12339 0.614533L3.69464 0.871777ZM3.85694 0.222434C3.63269 0.356977 3.5602 0.647727 3.69465 0.871792L4.12338 0.614518C4.13093 0.62709 4.12689 0.64356 4.11418 0.651189L3.85694 0.222434ZM4.5064 0.384935C4.37169 0.159934 4.08069 0.0881698 3.85692 0.222446L4.1142 0.651177C4.10193 0.65854 4.0852 0.654787 4.07741 0.641771L4.5064 0.384935ZM5.09473 1.36545L4.50627 0.384725L4.07753 0.641981L4.66599 1.6227L5.09473 1.36545ZM5.99836 1.0481C5.57524 1.0481 5.1717 1.12507 4.79657 1.25854L4.96416 1.72961C5.28955 1.61385 5.6365 1.5481 5.99836 1.5481V1.0481ZM7.20015 1.25854C6.82502 1.12507 6.42147 1.0481 5.99836 1.0481V1.5481C6.36022 1.5481 6.70717 1.61385 7.03256 1.72961L7.20015 1.25854ZM7.49045 0.384725L6.90199 1.36545L7.33073 1.6227L7.91919 0.641981L7.49045 0.384725ZM8.13993 0.222526C7.91557 0.0877028 7.62484 0.160247 7.49032 0.384935L7.91931 0.641771C7.91171 0.654474 7.89481 0.65856 7.88239 0.651097L8.13993 0.222526ZM8.30207 0.871792C8.43652 0.647727 8.36403 0.356977 8.13978 0.222435L7.88254 0.651189C7.86983 0.64356 7.86579 0.62709 7.87334 0.614517L8.30207 0.871792ZM3.35347 4.4431C3.45796 3.07564 4.60477 1.99467 5.99836 1.99467V1.49467C4.34124 1.49467 2.97916 2.7791 2.85492 4.405L3.35347 4.4431ZM8.89252 4.17405H3.1042V4.67405H8.89252V4.17405ZM5.99836 1.99467C7.39195 1.99467 8.53876 3.07564 8.64325 4.4431L9.14179 4.405C9.01756 2.7791 7.65548 1.49467 5.99836 1.49467V1.99467ZM7.55629 2.69314H7.26189V3.19314H7.55629V2.69314ZM7.9535 3.09035C7.9535 2.87082 7.7756 2.69314 7.55629 2.69314V3.19314C7.49961 3.19314 7.4535 3.14711 7.4535 3.09035H7.9535ZM7.9535 3.38475V3.09035H7.4535V3.38475H7.9535ZM7.55629 3.78195C7.77563 3.78195 7.9535 3.60423 7.9535 3.38475H7.4535C7.4535 3.32799 7.49959 3.28195 7.55629 3.28195V3.78195ZM7.26189 3.78195H7.55629V3.28195H7.26189V3.78195ZM6.86468 3.38475C6.86468 3.60425 7.0426 3.78195 7.26189 3.78195V3.28195C7.31859 3.28195 7.36468 3.32796 7.36468 3.38475H6.86468ZM6.86468 3.09035V3.38475H7.36468V3.09035H6.86468ZM7.26189 2.69314C7.04262 2.69314 6.86468 2.87079 6.86468 3.09035H7.36468C7.36468 3.14713 7.31857 3.19314 7.26189 3.19314V2.69314ZM4.44051 3.19314H4.73491V2.69314H4.44051V3.19314ZM4.5433 3.09035C4.5433 3.14711 4.49719 3.19314 4.44051 3.19314V2.69314C4.2212 2.69314 4.0433 2.87082 4.0433 3.09035H4.5433ZM4.5433 3.38475V3.09035H4.0433V3.38475H4.5433ZM4.44051 3.28195C4.49721 3.28195 4.5433 3.32799 4.5433 3.38475H4.0433C4.0433 3.60423 4.22117 3.78195 4.44051 3.78195V3.28195ZM4.73491 3.28195H4.44051V3.78195H4.73491V3.28195ZM4.63212 3.38475C4.63212 3.32796 4.67821 3.28195 4.73491 3.28195V3.78195C4.9542 3.78195 5.13212 3.60425 5.13212 3.38475H4.63212ZM4.63212 3.09035V3.38475H5.13212V3.09035H4.63212ZM4.73491 3.19314C4.67823 3.19314 4.63212 3.14713 4.63212 3.09035H5.13212C5.13212 2.87079 4.95418 2.69314 4.73491 2.69314V3.19314ZM9.12431 5.3778H2.87241V5.8778H9.12431V5.3778ZM9.59759 5.85108C9.59759 5.58952 9.3856 5.3778 9.12431 5.3778V5.8778C9.10962 5.8778 9.09759 5.86582 9.09759 5.85108H9.59759ZM9.59759 10.3549V5.85108H9.09759V10.3549H9.59759ZM8.26813 11.6831C9.00111 11.6831 9.59759 11.0879 9.59759 10.3549H9.09759C9.09759 10.8112 8.72552 11.1831 8.26813 11.1831V11.6831ZM8.0079 11.6831H8.26813V11.1831H8.0079V11.6831ZM8.2579 12.7741V11.4331H7.7579V12.7741H8.2579ZM7.11477 13.916C7.74498 13.916 8.2579 13.4042 8.2579 12.7741H7.7579C7.7579 13.1274 7.46951 13.416 7.11477 13.416V13.916ZM5.97164 12.7741C5.97164 13.4042 6.48457 13.916 7.11477 13.916V13.416C6.76003 13.416 6.47164 13.1274 6.47164 12.7741H5.97164ZM5.97164 11.4331V12.7741H6.47164V11.4331H5.97164ZM5.77508 11.6831H6.22164V11.1831H5.77508V11.6831ZM6.02508 12.7741V11.4331H5.52508V12.7741H6.02508ZM4.88195 13.916C5.51215 13.916 6.02508 13.4042 6.02508 12.7741H5.52508C5.52508 13.1274 5.23669 13.416 4.88195 13.416V13.916ZM3.73882 12.7741C3.73882 13.4042 4.25174 13.916 4.88195 13.916V13.416C4.52721 13.416 4.23882 13.1274 4.23882 12.7741H3.73882ZM3.73882 11.4331V12.7741H4.23882V11.4331H3.73882ZM3.72858 11.6831H3.98882V11.1831H3.72858V11.6831ZM2.39913 10.3549C2.39913 11.0879 2.99561 11.6831 3.72858 11.6831V11.1831C3.27119 11.1831 2.89913 10.8112 2.89913 10.3549H2.39913ZM2.39913 5.85108V10.3549H2.89913V5.85108H2.39913ZM2.87241 5.3778C2.61112 5.3778 2.39913 5.58952 2.39913 5.85108H2.89913C2.89913 5.86582 2.8871 5.8778 2.87241 5.8778V5.3778ZM8.65103 10.3549C8.65103 10.5646 8.47948 10.7366 8.26813 10.7366V11.2366C8.75477 11.2366 9.15103 10.8416 9.15103 10.3549H8.65103ZM8.65103 6.07436V10.3549H9.15103V6.07436H8.65103ZM3.09569 6.32436H8.90103V5.82436H3.09569V6.32436ZM3.34569 10.3549V6.07436H2.84569V10.3549H3.34569ZM3.72858 10.7366C3.51724 10.7366 3.34569 10.5646 3.34569 10.3549H2.84569C2.84569 10.8416 3.24195 11.2366 3.72858 11.2366V10.7366ZM4.2121 10.7366H3.72858V11.2366H4.2121V10.7366ZM4.68538 11.2099C4.68538 10.9483 4.47339 10.7366 4.2121 10.7366V11.2366C4.19741 11.2366 4.18538 11.2246 4.18538 11.2099H4.68538ZM4.68538 12.7741V11.2099H4.18538V12.7741H4.68538ZM4.88195 12.9694C4.77305 12.9694 4.68538 12.8809 4.68538 12.7741H4.18538C4.18538 13.1584 4.49828 13.4694 4.88195 13.4694V12.9694ZM5.07851 12.7741C5.07851 12.8809 4.99084 12.9694 4.88195 12.9694V13.4694C5.26561 13.4694 5.57851 13.1584 5.57851 12.7741H5.07851ZM5.07851 11.2099V12.7741H5.57851V11.2099H5.07851ZM5.55179 10.7366C5.29051 10.7366 5.07851 10.9483 5.07851 11.2099H5.57851C5.57851 11.2246 5.56649 11.2366 5.55179 11.2366V10.7366ZM6.44492 10.7366H5.55179V11.2366H6.44492V10.7366ZM6.91821 11.2099C6.91821 10.9483 6.70621 10.7366 6.44492 10.7366V11.2366C6.43023 11.2366 6.41821 11.2246 6.41821 11.2099H6.91821ZM6.91821 12.7741V11.2099H6.41821V12.7741H6.91821ZM7.11477 12.9694C7.00588 12.9694 6.91821 12.8809 6.91821 12.7741H6.41821C6.41821 13.1584 6.7311 13.4694 7.11477 13.4694V12.9694ZM7.31134 12.7741C7.31134 12.8809 7.22366 12.9694 7.11477 12.9694V13.4694C7.49844 13.4694 7.81134 13.1584 7.81134 12.7741H7.31134ZM7.31134 11.2099V12.7741H7.81134V11.2099H7.31134ZM7.78462 10.7366C7.52333 10.7366 7.31134 10.9483 7.31134 11.2099H7.81134C7.81134 11.2246 7.79931 11.2366 7.78462 11.2366V10.7366ZM8.26813 10.7366H7.78462V11.2366H8.26813V10.7366ZM10.3519 6.41158C10.3519 6.11808 10.5909 5.87922 10.8834 5.87922V5.37922C10.3142 5.37922 9.8519 5.84249 9.8519 6.41158H10.3519ZM10.3519 9.53579V6.41158H9.8519V9.53579H10.3519ZM10.8834 10.0681C10.5909 10.0681 10.3519 9.82928 10.3519 9.53579H9.8519C9.8519 10.1049 10.3142 10.5681 10.8834 10.5681V10.0681ZM11.4149 9.53579C11.4149 9.82928 11.1759 10.0681 10.8834 10.0681V10.5681C11.4526 10.5681 11.9149 10.1049 11.9149 9.53579H11.4149ZM11.4149 6.41158V9.53579H11.9149V6.41158H11.4149ZM10.8834 5.87922C11.1759 5.87922 11.4149 6.11808 11.4149 6.41158H11.9149C11.9149 5.84249 11.4526 5.37922 10.8834 5.37922V5.87922ZM10.8834 10.1216C11.2068 10.1216 11.4683 9.85835 11.4683 9.53579H10.9683C10.9683 9.58347 10.9294 9.62158 10.8834 9.62158V10.1216ZM10.2985 9.53579C10.2985 9.85835 10.56 10.1216 10.8834 10.1216V9.62158C10.8374 9.62158 10.7985 9.58347 10.7985 9.53579H10.2985ZM10.2985 6.41158V9.53579H10.7985V6.41158H10.2985ZM10.8834 5.82578C10.56 5.82578 10.2985 6.08901 10.2985 6.41158H10.7985C10.7985 6.36389 10.8374 6.32578 10.8834 6.32578V5.82578ZM11.4683 6.41158C11.4683 6.08901 11.2068 5.82578 10.8834 5.82578V6.32578C10.9294 6.32578 10.9683 6.3639 10.9683 6.41158H11.4683ZM11.4683 9.53579V6.41158H10.9683V9.53579H11.4683ZM1.10888 5.37922C0.539668 5.37922 0.0773926 5.84249 0.0773926 6.41158H0.577393C0.577393 6.11808 0.816358 5.87922 1.10888 5.87922V5.37922ZM2.14037 6.41158C2.14037 5.84249 1.67809 5.37922 1.10888 5.37922V5.87922C1.4014 5.87922 1.64037 6.11808 1.64037 6.41158H2.14037ZM2.14037 9.53579V6.41158H1.64037V9.53579H2.14037ZM1.10888 10.5681C1.67809 10.5681 2.14037 10.1049 2.14037 9.53579H1.64037C1.64037 9.82928 1.4014 10.0681 1.10888 10.0681V10.5681ZM0.0773926 9.53579C0.0773926 10.1049 0.539668 10.5681 1.10888 10.5681V10.0681C0.816358 10.0681 0.577393 9.82928 0.577393 9.53579H0.0773926ZM0.0773926 6.41158V9.53579H0.577393V6.41158H0.0773926ZM1.1938 9.53579C1.1938 9.58347 1.15486 9.62158 1.10888 9.62158V10.1216C1.43226 10.1216 1.6938 9.85835 1.6938 9.53579H1.1938ZM1.1938 6.41158V9.53579H1.6938V6.41158H1.1938ZM1.10888 6.32578C1.15486 6.32578 1.1938 6.3639 1.1938 6.41158H1.6938C1.6938 6.08901 1.43226 5.82578 1.10888 5.82578V6.32578ZM1.02396 6.41158C1.02396 6.3639 1.0629 6.32578 1.10888 6.32578V5.82578C0.785505 5.82578 0.523957 6.08901 0.523957 6.41158H1.02396ZM1.02396 9.53579V6.41158H0.523957V9.53579H1.02396ZM1.10888 9.62158C1.0629 9.62158 1.02396 9.58347 1.02396 9.53579H0.523957C0.523957 9.85835 0.785505 10.1216 1.10888 10.1216V9.62158Z" fill="#B0B0B0" mask="url(#path-1-outside-1_2175_766)"/>
</svg>
