<svg width="15" height="14" viewBox="0 0 15 14" fill="none" xmlns="http://www.w3.org/2000/svg">
<path d="M7.5036 14C6.54289 14 5.63982 13.8151 4.79439 13.4452C3.95377 13.0801 3.21161 12.5757 2.56794 11.9321C1.92426 11.2884 1.41748 10.5462 1.04761 9.70561C0.682536 8.86018 0.5 7.95711 0.5 6.9964C0.5 6.04049 0.682536 5.13982 1.04761 4.29439C1.41268 3.44896 1.91705 2.70441 2.56073 2.06073C3.20921 1.41705 3.95377 0.912678 4.79439 0.547607C5.63982 0.182536 6.54049 0 7.4964 0C8.45231 0 9.35298 0.182536 10.1984 0.547607C11.0438 0.912678 11.7884 1.41705 12.4321 2.06073C13.0757 2.70441 13.5801 3.44896 13.9452 4.29439C14.3151 5.13982 14.5 6.04049 14.5 6.9964C14.5 7.95711 14.3175 8.86018 13.9524 9.70561C13.5873 10.5462 13.0829 11.2884 12.4393 11.9321C11.7956 12.5757 11.051 13.0801 10.2056 13.4452C9.36018 13.8151 8.45951 14 7.5036 14ZM5.49331 9.74884H6.21384C6.39158 9.74884 6.52367 9.70561 6.61014 9.61915C6.6966 9.53268 6.73984 9.4174 6.73984 9.27329V4.69789C6.73984 4.55859 6.6966 4.4457 6.61014 4.35924C6.52367 4.26797 6.39158 4.22234 6.21384 4.22234H5.49331C5.32038 4.22234 5.19068 4.26797 5.10422 4.35924C5.01776 4.4457 4.97452 4.55859 4.97452 4.69789V9.27329C4.97452 9.4174 5.01776 9.53268 5.10422 9.61915C5.19068 9.70561 5.32038 9.74884 5.49331 9.74884ZM8.80057 9.74884H9.5211C9.68923 9.74884 9.81652 9.70561 9.90298 9.61915C9.98945 9.53268 10.0327 9.4174 10.0327 9.27329V4.69789C10.0327 4.55859 9.98945 4.4457 9.90298 4.35924C9.81652 4.26797 9.68923 4.22234 9.5211 4.22234H8.80057C8.62283 4.22234 8.49074 4.26797 8.40427 4.35924C8.31781 4.4457 8.27458 4.55859 8.27458 4.69789V9.27329C8.27458 9.4174 8.31781 9.53268 8.40427 9.61915C8.49074 9.70561 8.62283 9.74884 8.80057 9.74884Z" fill="#7E7E7E"/>
</svg>
