<svg width="14" height="14" viewBox="0 0 14 14" fill="none" xmlns="http://www.w3.org/2000/svg">
<path d="M7.0036 14C6.04289 14 5.13982 13.8151 4.29439 13.4452C3.45377 13.0801 2.71161 12.5757 2.06794 11.9321C1.42426 11.2884 0.917482 10.5462 0.547607 9.70561C0.182536 8.86018 0 7.95711 0 6.9964C0 6.04049 0.182536 5.13982 0.547607 4.29439C0.912678 3.44896 1.41705 2.70441 2.06073 2.06073C2.70921 1.41705 3.45377 0.912678 4.29439 0.547607C5.13982 0.182536 6.04049 0 6.9964 0C7.95231 0 8.85298 0.182536 9.6984 0.547607C10.5438 0.912678 11.2884 1.41705 11.9321 2.06073C12.5757 2.70441 13.0801 3.44896 13.4452 4.29439C13.8151 5.13982 14 6.04049 14 6.9964C14 7.95711 13.8175 8.86018 13.4524 9.70561C13.0873 10.5462 12.5829 11.2884 11.9393 11.9321C11.2956 12.5757 10.551 13.0801 9.70561 13.4452C8.86018 13.8151 7.95951 14 7.0036 14ZM2.71642 6.9964C2.71642 7.06365 2.73083 7.1333 2.75965 7.20535C2.78847 7.27741 2.84131 7.34946 2.91817 7.42151L5.9228 10.2532C6.01887 10.3349 6.10774 10.3973 6.1894 10.4406C6.27586 10.4838 6.36713 10.5054 6.4632 10.5054C6.6025 10.5054 6.71779 10.4622 6.80906 10.3757C6.90033 10.2844 6.94596 10.1692 6.94596 10.0299V8.53834H10.0443C10.3277 8.53834 10.5486 8.46149 10.7072 8.30777C10.8657 8.15406 10.9449 7.9379 10.9449 7.65929V6.34071C10.9449 6.06691 10.8657 5.85315 10.7072 5.69943C10.5486 5.54092 10.3277 5.46166 10.0443 5.46166H6.94596V3.98456C6.94596 3.84526 6.90033 3.72757 6.80906 3.6315C6.71779 3.53062 6.5977 3.48019 6.44879 3.48019C6.35272 3.48019 6.26625 3.5042 6.1894 3.55224C6.11734 3.59547 6.02848 3.66512 5.9228 3.76119L2.91817 6.56408C2.84131 6.63613 2.78847 6.70818 2.75965 6.78024C2.73083 6.85229 2.71642 6.92434 2.71642 6.9964Z" fill="#CE0000"/>
</svg>
