<svg width="16" height="16" viewBox="0 0 16 16" fill="none" xmlns="http://www.w3.org/2000/svg">
<path d="M11.0884 8.33154C11.0884 8.39242 11.0776 8.44792 11.0562 8.49805C11.0347 8.54818 11.0007 8.59473 10.9541 8.6377L6.91504 12.5479C6.83626 12.6266 6.73779 12.666 6.61963 12.666C6.54085 12.666 6.46924 12.6481 6.40479 12.6123C6.34391 12.5801 6.29378 12.5317 6.25439 12.4673C6.21859 12.4028 6.20068 12.3312 6.20068 12.2524C6.20068 12.1379 6.24007 12.0394 6.31885 11.957L10.0679 8.33154L6.31885 4.71143C6.24007 4.62549 6.20068 4.52702 6.20068 4.41602C6.20068 4.33366 6.21859 4.26204 6.25439 4.20117C6.29378 4.13672 6.34391 4.08659 6.40479 4.05078C6.46924 4.01497 6.54085 3.99707 6.61963 3.99707C6.73779 3.99707 6.83626 4.03825 6.91504 4.12061L10.9541 8.03076C11.0007 8.07373 11.0347 8.12028 11.0562 8.17041C11.0776 8.22054 11.0884 8.27425 11.0884 8.33154Z" fill="#7E7E7E"/>
</svg>
