<svg width="10" height="9" viewBox="0 0 10 9" fill="none" xmlns="http://www.w3.org/2000/svg">
<path d="M5.33203 8.21484C5.92057 8.21484 6.4349 8.14844 6.875 8.01562C7.3151 7.88542 7.65755 7.70312 7.90234 7.46875C8.14714 7.23438 8.26953 6.96094 8.26953 6.64844C8.26953 6.44531 8.23698 6.27865 8.17188 6.14844C8.10938 6.01562 8.03516 5.90234 7.94922 5.80859C7.86589 5.71224 7.79167 5.61849 7.72656 5.52734C7.66146 5.4362 7.62891 5.33464 7.62891 5.22266C7.62891 5.11589 7.68229 5.02083 7.78906 4.9375C7.89844 4.85417 8.03776 4.77083 8.20703 4.6875C8.37891 4.60417 8.5599 4.51302 8.75 4.41406C8.94271 4.3125 9.1237 4.19141 9.29297 4.05078C9.46484 3.91016 9.60417 3.74219 9.71094 3.54688C9.82031 3.34896 9.875 3.11068 9.875 2.83203C9.875 2.41797 9.77344 2.04297 9.57031 1.70703C9.36719 1.37109 9.07812 1.08203 8.70312 0.839844C8.32812 0.597656 7.87891 0.411458 7.35547 0.28125C6.83464 0.151042 6.25651 0.0859375 5.62109 0.0859375C4.79818 0.0859375 4.05078 0.186198 3.37891 0.386719C2.70703 0.584635 2.1276 0.865885 1.64062 1.23047C1.15365 1.59505 0.778646 2.02995 0.515625 2.53516C0.255208 3.04036 0.125 3.59896 0.125 4.21094C0.125 4.8099 0.248698 5.35547 0.496094 5.84766C0.746094 6.33724 1.10156 6.75781 1.5625 7.10938C2.02344 7.46354 2.57292 7.73568 3.21094 7.92578C3.84896 8.11849 4.55599 8.21484 5.33203 8.21484ZM5.29297 6.67578C5.08464 6.67578 4.89583 6.625 4.72656 6.52344C4.55729 6.42188 4.42057 6.28646 4.31641 6.11719C4.21484 5.94531 4.16406 5.75521 4.16406 5.54688C4.16406 5.34115 4.21484 5.15365 4.31641 4.98438C4.42057 4.8125 4.55729 4.67578 4.72656 4.57422C4.89583 4.47266 5.08464 4.42188 5.29297 4.42188C5.5013 4.42188 5.6901 4.47266 5.85938 4.57422C6.03125 4.67578 6.16797 4.8125 6.26953 4.98438C6.37109 5.15365 6.42188 5.34115 6.42188 5.54688C6.42188 5.76042 6.3724 5.95312 6.27344 6.125C6.17448 6.29427 6.03906 6.42839 5.86719 6.52734C5.69792 6.6263 5.50651 6.67578 5.29297 6.67578ZM2.02344 4.72266C1.84115 4.72266 1.68359 4.65755 1.55078 4.52734C1.42057 4.39453 1.35547 4.23568 1.35547 4.05078C1.35547 3.8737 1.42188 3.72005 1.55469 3.58984C1.6875 3.45964 1.84375 3.39453 2.02344 3.39453C2.20573 3.39453 2.36068 3.45833 2.48828 3.58594C2.61849 3.71354 2.68359 3.86849 2.68359 4.05078C2.68359 4.23568 2.61849 4.39453 2.48828 4.52734C2.36068 4.65755 2.20573 4.72266 2.02344 4.72266ZM3.58984 3.29297C3.36068 3.29297 3.16406 3.21354 3 3.05469C2.83854 2.89583 2.75781 2.70052 2.75781 2.46875C2.75781 2.23958 2.83854 2.04688 3 1.89062C3.16406 1.73177 3.36068 1.65234 3.58984 1.65234C3.81641 1.65234 4.01042 1.73177 4.17188 1.89062C4.33594 2.04688 4.41797 2.23958 4.41797 2.46875C4.41797 2.70052 4.33594 2.89583 4.17188 3.05469C4.01042 3.21354 3.81641 3.29297 3.58984 3.29297ZM5.75 2.64453C5.5651 2.64453 5.40625 2.58073 5.27344 2.45312C5.14062 2.32292 5.07422 2.16406 5.07422 1.97656C5.07422 1.79167 5.14062 1.63411 5.27344 1.50391C5.40625 1.3737 5.5651 1.30859 5.75 1.30859C5.9349 1.30859 6.09245 1.3737 6.22266 1.50391C6.35286 1.63411 6.41797 1.79167 6.41797 1.97656C6.41797 2.16406 6.35286 2.32292 6.22266 2.45312C6.09245 2.58073 5.9349 2.64453 5.75 2.64453ZM7.67969 2.98047C7.52865 2.98047 7.39844 2.92839 7.28906 2.82422C7.18229 2.71745 7.12891 2.58854 7.12891 2.4375C7.12891 2.28646 7.18229 2.15755 7.28906 2.05078C7.39844 1.94401 7.52865 1.89062 7.67969 1.89062C7.82812 1.89062 7.95573 1.94531 8.0625 2.05469C8.16927 2.16406 8.22266 2.29167 8.22266 2.4375C8.22266 2.58333 8.16927 2.71094 8.0625 2.82031C7.95573 2.92708 7.82812 2.98047 7.67969 2.98047Z" fill="white"/>
</svg>
