<svg width="12" height="9" viewBox="0 0 12 9" fill="none" xmlns="http://www.w3.org/2000/svg">
<path d="M0.046875 4.67969C0.046875 4.59115 0.0664062 4.5026 0.105469 4.41406C0.144531 4.32552 0.203125 4.24609 0.28125 4.17578L2.66406 2.02734C2.80469 1.89974 2.95964 1.83984 3.12891 1.84766C3.30078 1.85286 3.44661 1.92188 3.56641 2.05469C3.6888 2.1901 3.74349 2.34375 3.73047 2.51562C3.72005 2.6849 3.64583 2.83203 3.50781 2.95703L1.60547 4.67969L3.50781 6.39844C3.64583 6.52344 3.72005 6.67188 3.73047 6.84375C3.74349 7.01302 3.6888 7.16536 3.56641 7.30078C3.44661 7.4362 3.30078 7.50651 3.12891 7.51172C2.95964 7.51693 2.80469 7.45573 2.66406 7.32812L0.28125 5.17969C0.203125 5.10938 0.144531 5.03125 0.105469 4.94531C0.0664062 4.85677 0.046875 4.76823 0.046875 4.67969ZM4.87891 8.52344C4.69922 8.47396 4.57161 8.3737 4.49609 8.22266C4.42057 8.07161 4.41016 7.90495 4.46484 7.72266L6.33984 1.29297C6.39453 1.10547 6.49479 0.971354 6.64062 0.890625C6.78906 0.809896 6.95182 0.794271 7.12891 0.84375C7.30599 0.893229 7.43359 0.992188 7.51172 1.14062C7.59245 1.28906 7.60547 1.45052 7.55078 1.625L5.67188 8.07422C5.61719 8.25651 5.51562 8.38932 5.36719 8.47266C5.21875 8.55859 5.05599 8.57552 4.87891 8.52344ZM11.9492 4.67969C11.9492 4.76823 11.9297 4.85677 11.8906 4.94531C11.8516 5.03125 11.793 5.10938 11.7148 5.17969L9.33594 7.32812C9.19271 7.45573 9.03516 7.51693 8.86328 7.51172C8.69401 7.50651 8.54948 7.4362 8.42969 7.30078C8.30729 7.16536 8.2513 7.01302 8.26172 6.84375C8.27474 6.67188 8.35026 6.52344 8.48828 6.39844L10.3906 4.67969L8.48828 2.95703C8.35026 2.83203 8.27474 2.6849 8.26172 2.51562C8.2513 2.34375 8.30729 2.1901 8.42969 2.05469C8.54948 1.92188 8.69401 1.85286 8.86328 1.84766C9.03516 1.83984 9.19271 1.89974 9.33594 2.02734L11.7148 4.17578C11.793 4.24609 11.8516 4.32552 11.8906 4.41406C11.9297 4.5026 11.9492 4.59115 11.9492 4.67969Z" fill="white"/>
</svg>
