<svg width="10" height="10" viewBox="0 0 10 10" fill="none" xmlns="http://www.w3.org/2000/svg">
<path d="M4.99561 9.97217C4.35693 9.97217 3.75635 9.85059 3.19385 9.60742C2.63428 9.36719 2.14209 9.03467 1.71729 8.60986C1.29248 8.18506 0.958496 7.69287 0.715332 7.1333C0.475098 6.5708 0.35498 5.97021 0.35498 5.33154C0.35498 4.68994 0.475098 4.08936 0.715332 3.52979C0.958496 2.96729 1.29248 2.47363 1.71729 2.04883C2.14209 1.62402 2.63428 1.2915 3.19385 1.05127C3.75635 0.811035 4.35693 0.690918 4.99561 0.690918C5.63721 0.690918 6.23779 0.811035 6.79736 1.05127C7.35986 1.2915 7.85352 1.62402 8.27832 2.04883C8.70312 2.47363 9.03564 2.96729 9.27588 3.52979C9.51904 4.08936 9.64062 4.68994 9.64062 5.33154C9.64062 5.97021 9.51904 6.5708 9.27588 7.1333C9.03564 7.69287 8.70312 8.18506 8.27832 8.60986C7.85352 9.03467 7.35986 9.36719 6.79736 9.60742C6.23779 9.85059 5.63721 9.97217 4.99561 9.97217ZM2.56543 6.95312C2.56543 7.08496 2.60498 7.19189 2.68408 7.27393C2.76611 7.35303 2.87305 7.39258 3.00488 7.39258H7.06104C7.15479 7.39258 7.23242 7.36182 7.29395 7.30029C7.3584 7.23584 7.39062 7.1582 7.39062 7.06738C7.39062 6.97363 7.3584 6.89453 7.29395 6.83008C7.23242 6.76562 7.15479 6.7334 7.06104 6.7334H3.26416C3.23779 6.7334 3.22461 6.71875 3.22461 6.68945V5.90723L3.98926 5.11621C4.00977 5.0957 4.02881 5.0957 4.04639 5.11621L4.73193 5.8457C4.84912 5.95996 4.9751 6.01709 5.10986 6.01709C5.2417 6.01709 5.36768 5.95996 5.48779 5.8457L6.30078 5.00635L6.56445 5.27441C6.63477 5.34766 6.71533 5.36963 6.80615 5.34033C6.89697 5.30811 6.95557 5.24072 6.98193 5.13818L7.30713 3.89893C7.3335 3.80518 7.31152 3.72461 7.24121 3.65723C7.1709 3.58691 7.0874 3.56348 6.99072 3.58691L5.75586 3.90771C5.65332 3.93701 5.58594 3.99707 5.55371 4.08789C5.52441 4.17578 5.54639 4.25488 5.61963 4.3252L5.87451 4.58008L5.14062 5.33154C5.12305 5.35498 5.104 5.35498 5.0835 5.33154L4.39355 4.60645C4.2793 4.48926 4.15332 4.43066 4.01562 4.43066C3.88965 4.43066 3.76807 4.48926 3.65088 4.60645L3.22461 5.0415V3.48584C3.22461 3.39209 3.19238 3.31299 3.12793 3.24854C3.06641 3.18408 2.99023 3.15186 2.89941 3.15186C2.80566 3.15186 2.72656 3.18408 2.66211 3.24854C2.59766 3.31299 2.56543 3.39209 2.56543 3.48584V6.95312Z" fill="white"/>
</svg>
