<svg width="2" height="9" viewBox="0 0 2 9" fill="none" xmlns="http://www.w3.org/2000/svg">
<path d="M1.00439 5.97949C0.790527 5.97949 0.625 5.91797 0.507812 5.79492C0.393555 5.67188 0.333496 5.50049 0.327637 5.28076L0.244141 1.0752C0.244141 1.0459 0.242676 1.01807 0.239746 0.991699C0.239746 0.962402 0.239746 0.9375 0.239746 0.916992C0.239746 0.682617 0.310059 0.498047 0.450684 0.363281C0.591309 0.228516 0.775879 0.161133 1.00439 0.161133C1.23584 0.161133 1.42041 0.228516 1.55811 0.363281C1.6958 0.498047 1.76465 0.682617 1.76465 0.916992C1.76465 0.9375 1.76465 0.962402 1.76465 0.991699C1.76465 1.01807 1.76318 1.0459 1.76025 1.0752L1.68555 5.28076C1.67969 5.50049 1.61816 5.67188 1.50098 5.79492C1.38379 5.91797 1.21826 5.97949 1.00439 5.97949ZM1.00439 8.56787C0.840332 8.56787 0.690918 8.52979 0.556152 8.45361C0.421387 8.37744 0.312988 8.27344 0.230957 8.1416C0.151855 8.0127 0.112305 7.86914 0.112305 7.71094C0.112305 7.55273 0.151855 7.40918 0.230957 7.28027C0.312988 7.15137 0.421387 7.04883 0.556152 6.97266C0.690918 6.89648 0.840332 6.8584 1.00439 6.8584C1.16553 6.8584 1.31348 6.89648 1.44824 6.97266C1.58301 7.04883 1.68994 7.15137 1.76904 7.28027C1.84814 7.40918 1.8877 7.55273 1.8877 7.71094C1.8877 7.86914 1.84814 8.0127 1.76904 8.1416C1.68994 8.27344 1.58301 8.37744 1.44824 8.45361C1.31348 8.52979 1.16553 8.56787 1.00439 8.56787Z" fill="white"/>
</svg>
