<svg width="12" height="13" viewBox="0 0 12 13" fill="none" xmlns="http://www.w3.org/2000/svg">
<path d="M5.97656 12.4531C5.16016 12.4531 4.39062 12.2969 3.66797 11.9844C2.94922 11.6719 2.31445 11.2402 1.76367 10.6895C1.21289 10.1387 0.78125 9.50391 0.46875 8.78516C0.15625 8.0625 0 7.29297 0 6.47656C0 5.66016 0.15625 4.89258 0.46875 4.17383C0.78125 3.45117 1.21094 2.81445 1.75781 2.26367C2.30859 1.71289 2.94336 1.28125 3.66211 0.96875C4.38477 0.65625 5.1543 0.5 5.9707 0.5C6.78711 0.5 7.55664 0.65625 8.2793 0.96875C9.00195 1.28125 9.63867 1.71289 10.1895 2.26367C10.7402 2.81445 11.1719 3.45117 11.4844 4.17383C11.7969 4.89258 11.9531 5.66016 11.9531 6.47656C11.9531 7.29297 11.7969 8.0625 11.4844 8.78516C11.1719 9.50391 10.7402 10.1387 10.1895 10.6895C9.63867 11.2402 9.00195 11.6719 8.2793 11.9844C7.56055 12.2969 6.79297 12.4531 5.97656 12.4531ZM5.31445 9.33594C5.41602 9.33594 5.50781 9.3125 5.58984 9.26562C5.67188 9.21875 5.74414 9.14844 5.80664 9.05469L8.56055 4.71289C8.5957 4.6543 8.62891 4.5918 8.66016 4.52539C8.69141 4.45898 8.70703 4.39258 8.70703 4.32617C8.70703 4.18945 8.65625 4.08203 8.55469 4.00391C8.45312 3.92188 8.33984 3.88086 8.21484 3.88086C8.04297 3.88086 7.90234 3.9707 7.79297 4.15039L5.29102 8.16992L4.10156 6.63477C4.02734 6.53711 3.95508 6.4707 3.88477 6.43555C3.81836 6.40039 3.74219 6.38281 3.65625 6.38281C3.52344 6.38281 3.41211 6.43164 3.32227 6.5293C3.23242 6.62305 3.1875 6.73633 3.1875 6.86914C3.1875 6.93555 3.19922 7.00195 3.22266 7.06836C3.25 7.13086 3.28516 7.19141 3.32812 7.25L4.79883 9.05469C4.87695 9.15625 4.95703 9.22852 5.03906 9.27148C5.12109 9.31445 5.21289 9.33594 5.31445 9.33594Z" fill="#1BBA69"/>
</svg>
