<svg width="8" height="9" viewBox="0 0 8 9" fill="none" xmlns="http://www.w3.org/2000/svg">
<path d="M1.96484 8.53125C1.80599 8.53125 1.68099 8.48828 1.58984 8.40234C1.4987 8.31901 1.45312 8.20443 1.45312 8.05859C1.45312 8.03255 1.45443 8 1.45703 7.96094C1.45964 7.92448 1.46484 7.89193 1.47266 7.86328L2.76953 1.34766C2.80339 1.17318 2.86979 1.04167 2.96875 0.953125C3.07031 0.861979 3.20964 0.816406 3.38672 0.816406C3.54557 0.816406 3.67057 0.860677 3.76172 0.949219C3.85547 1.03516 3.90234 1.14974 3.90234 1.29297C3.90234 1.32422 3.89974 1.35938 3.89453 1.39844C3.89193 1.4349 3.88802 1.46484 3.88281 1.48828L2.58594 8.00781C2.51562 8.35677 2.30859 8.53125 1.96484 8.53125ZM4.51953 8.53125C4.36068 8.53125 4.23568 8.48828 4.14453 8.40234C4.05599 8.31901 4.01172 8.20443 4.01172 8.05859C4.01172 8.03255 4.01302 8 4.01562 7.96094C4.01823 7.92448 4.02214 7.89193 4.02734 7.86328L5.32812 1.34766C5.36198 1.17578 5.42839 1.04427 5.52734 0.953125C5.6263 0.861979 5.76562 0.816406 5.94531 0.816406C6.10156 0.816406 6.22526 0.860677 6.31641 0.949219C6.41016 1.03516 6.45703 1.14974 6.45703 1.29297C6.45703 1.32422 6.45443 1.35938 6.44922 1.39844C6.44661 1.4349 6.44271 1.46484 6.4375 1.48828L5.14062 8.00781C5.07292 8.35677 4.86589 8.53125 4.51953 8.53125ZM1.46484 3.86719C1.30599 3.86719 1.17969 3.82292 1.08594 3.73438C0.992188 3.64583 0.945312 3.52734 0.945312 3.37891C0.945312 3.19661 1.0013 3.04948 1.11328 2.9375C1.22786 2.82552 1.38542 2.76953 1.58594 2.76953H7.03125C7.19271 2.76953 7.31901 2.8138 7.41016 2.90234C7.50391 2.99089 7.55078 3.10807 7.55078 3.25391C7.55078 3.4362 7.49349 3.58464 7.37891 3.69922C7.26693 3.8112 7.11198 3.86719 6.91406 3.86719H1.46484ZM0.96875 6.44141C0.804688 6.44141 0.675781 6.39844 0.582031 6.3125C0.490885 6.22396 0.445312 6.10677 0.445312 5.96094C0.445312 5.77604 0.502604 5.6276 0.617188 5.51562C0.731771 5.40365 0.888021 5.34766 1.08594 5.34766H6.53125C6.6901 5.34766 6.81641 5.39323 6.91016 5.48438C7.00651 5.57552 7.05469 5.69401 7.05469 5.83984C7.05469 6.02214 6.9974 6.16797 6.88281 6.27734C6.76823 6.38672 6.61068 6.44141 6.41016 6.44141H0.96875Z" fill="white"/>
</svg>
