<svg width="16" height="17" viewBox="0 0 16 17" fill="none" xmlns="http://www.w3.org/2000/svg">
<circle cx="8" cy="8.5" r="8" fill="#52A7AC"/>
<path d="M2.04688 8.67969C2.04688 8.59115 2.06641 8.5026 2.10547 8.41406C2.14453 8.32552 2.20312 8.24609 2.28125 8.17578L4.66406 6.02734C4.80469 5.89974 4.95964 5.83984 5.12891 5.84766C5.30078 5.85286 5.44661 5.92188 5.56641 6.05469C5.6888 6.1901 5.74349 6.34375 5.73047 6.51562C5.72005 6.6849 5.64583 6.83203 5.50781 6.95703L3.60547 8.67969L5.50781 10.3984C5.64583 10.5234 5.72005 10.6719 5.73047 10.8438C5.74349 11.013 5.6888 11.1654 5.56641 11.3008C5.44661 11.4362 5.30078 11.5065 5.12891 11.5117C4.95964 11.5169 4.80469 11.4557 4.66406 11.3281L2.28125 9.17969C2.20312 9.10938 2.14453 9.03125 2.10547 8.94531C2.06641 8.85677 2.04688 8.76823 2.04688 8.67969ZM6.87891 12.5234C6.69922 12.474 6.57161 12.3737 6.49609 12.2227C6.42057 12.0716 6.41016 11.9049 6.46484 11.7227L8.33984 5.29297C8.39453 5.10547 8.49479 4.97135 8.64062 4.89062C8.78906 4.8099 8.95182 4.79427 9.12891 4.84375C9.30599 4.89323 9.43359 4.99219 9.51172 5.14062C9.59245 5.28906 9.60547 5.45052 9.55078 5.625L7.67188 12.0742C7.61719 12.2565 7.51562 12.3893 7.36719 12.4727C7.21875 12.5586 7.05599 12.5755 6.87891 12.5234ZM13.9492 8.67969C13.9492 8.76823 13.9297 8.85677 13.8906 8.94531C13.8516 9.03125 13.793 9.10938 13.7148 9.17969L11.3359 11.3281C11.1927 11.4557 11.0352 11.5169 10.8633 11.5117C10.694 11.5065 10.5495 11.4362 10.4297 11.3008C10.3073 11.1654 10.2513 11.013 10.2617 10.8438C10.2747 10.6719 10.3503 10.5234 10.4883 10.3984L12.3906 8.67969L10.4883 6.95703C10.3503 6.83203 10.2747 6.6849 10.2617 6.51562C10.2513 6.34375 10.3073 6.1901 10.4297 6.05469C10.5495 5.92188 10.694 5.85286 10.8633 5.84766C11.0352 5.83984 11.1927 5.89974 11.3359 6.02734L13.7148 8.17578C13.793 8.24609 13.8516 8.32552 13.8906 8.41406C13.9297 8.5026 13.9492 8.59115 13.9492 8.67969Z" fill="white"/>
</svg>
