<svg width="10" height="14" viewBox="0 0 10 14" fill="none" xmlns="http://www.w3.org/2000/svg">
<path d="M0.894897 11.9432V2.06072C0.894897 1.56167 1.05387 1.15921 1.37182 0.853338C1.69378 0.547467 2.11436 0.394531 2.63353 0.394531H7.3846C7.89975 0.394531 8.31228 0.547467 8.62217 0.853338C8.93609 1.15921 9.09305 1.56167 9.09305 2.06072V11.9432C9.09305 12.4422 8.93609 12.8447 8.62217 13.1506C8.31228 13.4564 7.89975 13.6094 7.3846 13.6094H2.63353C2.11436 13.6094 1.69378 13.4564 1.37182 13.1506C1.05387 12.8447 0.894897 12.4422 0.894897 11.9432ZM2.08417 11.3335H7.90981V2.67045H2.08417V11.3335ZM5.00605 12.9393C5.15496 12.9393 5.28375 12.8849 5.39241 12.7763C5.5051 12.6676 5.56145 12.5348 5.56145 12.3778C5.56145 12.2249 5.5051 12.0941 5.39241 11.9854C5.28375 11.8768 5.15496 11.8224 5.00605 11.8224C4.84909 11.8224 4.71426 11.8768 4.60157 11.9854C4.49291 12.0941 4.43858 12.2249 4.43858 12.3778C4.43858 12.5348 4.49291 12.6676 4.60157 12.7763C4.71426 12.8849 4.84909 12.9393 5.00605 12.9393ZM3.76848 1.5657C3.76848 1.64619 3.79263 1.70857 3.84092 1.75284C3.88922 1.79711 3.9516 1.81925 4.02807 1.81925H5.96592C6.04239 1.81925 6.10477 1.79711 6.15307 1.75284C6.20136 1.70857 6.22551 1.64619 6.22551 1.5657C6.22551 1.48923 6.20136 1.42886 6.15307 1.38459C6.10477 1.33629 6.04239 1.31214 5.96592 1.31214H4.02807C3.9516 1.31214 3.88922 1.33629 3.84092 1.38459C3.79263 1.42886 3.76848 1.48923 3.76848 1.5657Z" fill="#B0B0B0"/>
</svg>
