<svg width="16" height="16" viewBox="0 0 16 16" fill="none" xmlns="http://www.w3.org/2000/svg">
<path d="M0.799988 7.64101C0.799988 7.47695 0.848816 7.34023 0.946472 7.23086C1.04803 7.11758 1.19843 7.04531 1.39764 7.01406C1.76093 6.95937 2.02069 6.82656 2.17694 6.61562C2.33319 6.40469 2.41132 6.06484 2.41132 5.59609V3.94375C2.41132 3.15469 2.59491 2.5668 2.9621 2.18008C3.32928 1.79336 3.89569 1.6 4.66132 1.6C4.7785 1.6 4.87811 1.61367 4.96014 1.64101C5.0578 1.67617 5.13202 1.7289 5.1828 1.79922C5.23749 1.86562 5.26483 1.95156 5.26483 2.05703C5.26483 2.26015 5.17889 2.39101 5.00702 2.44961C4.97577 2.46133 4.94061 2.47109 4.90155 2.4789C4.86249 2.48281 4.81952 2.48672 4.77264 2.49062C4.28046 2.52578 3.9328 2.66055 3.72968 2.89492C3.53046 3.1293 3.43085 3.51797 3.43085 4.06094V6.01211C3.43085 6.5082 3.30585 6.89297 3.05585 7.1664C2.80585 7.43984 2.45233 7.59805 1.9953 7.64101C1.98749 7.64101 1.98358 7.64492 1.98358 7.65273C1.98358 7.66055 1.98749 7.66445 1.9953 7.66445C2.45233 7.70742 2.80585 7.86562 3.05585 8.13906C3.30585 8.4125 3.43085 8.79726 3.43085 9.29336V11.2387C3.43085 11.7816 3.53046 12.1703 3.72968 12.4047C3.9328 12.643 4.28046 12.7797 4.77264 12.8148C4.8078 12.8148 4.83905 12.8168 4.86639 12.8207C4.89764 12.8285 4.92889 12.8363 4.96014 12.8441C5.16327 12.8949 5.26483 13.0277 5.26483 13.2426C5.26483 13.3402 5.23944 13.4242 5.18866 13.4945C5.14178 13.5648 5.07343 13.6195 4.98358 13.6586C4.90155 13.6859 4.81366 13.6996 4.71991 13.6996C3.93085 13.6996 3.34882 13.5082 2.97382 13.1254C2.59882 12.7426 2.41132 12.1527 2.41132 11.3559V9.70937C2.41132 9.23672 2.33319 8.89492 2.17694 8.68398C2.02069 8.47305 1.76093 8.34023 1.39764 8.28555C1.19843 8.25039 1.04803 8.17812 0.946472 8.06875C0.848816 7.95547 0.799988 7.81289 0.799988 7.64101ZM15.5246 7.64101C15.5246 7.81289 15.4738 7.95547 15.3723 8.06875C15.2746 8.17812 15.1242 8.25039 14.9211 8.28555C14.5578 8.34023 14.298 8.47305 14.1418 8.68398C13.9855 8.89492 13.9074 9.23672 13.9074 9.70937V11.3559C13.9074 12.1527 13.7199 12.7426 13.3449 13.1254C12.9738 13.5082 12.3918 13.6996 11.5988 13.6996C11.509 13.6996 11.423 13.6859 11.341 13.6586C11.2473 13.6195 11.175 13.5648 11.1242 13.4945C11.0773 13.4242 11.0539 13.3402 11.0539 13.2426C11.0539 13.0277 11.1574 12.8949 11.3644 12.8441C11.3918 12.8363 11.4191 12.8285 11.4465 12.8207C11.4777 12.8168 11.5109 12.8148 11.5461 12.8148C12.0383 12.7797 12.3859 12.643 12.5891 12.4047C12.7922 12.1703 12.8937 11.7816 12.8937 11.2387V9.29336C12.8937 8.79726 13.0168 8.4125 13.2629 8.13906C13.5129 7.86562 13.8664 7.70742 14.3234 7.66445C14.3312 7.66445 14.3351 7.66055 14.3351 7.65273C14.3351 7.64492 14.3312 7.64101 14.3234 7.64101C13.8664 7.59805 13.5129 7.43984 13.2629 7.1664C13.0168 6.89297 12.8937 6.5082 12.8937 6.01211V4.06094C12.8937 3.51797 12.7922 3.1293 12.5891 2.89492C12.3859 2.66055 12.0383 2.52578 11.5461 2.49062C11.4992 2.48672 11.4562 2.48281 11.4172 2.4789C11.3781 2.47109 11.3449 2.46133 11.3176 2.44961C11.1418 2.39101 11.0539 2.26015 11.0539 2.05703C11.0539 1.95156 11.0793 1.86562 11.1301 1.79922C11.1848 1.7289 11.2629 1.67617 11.3644 1.64101C11.4465 1.61367 11.5441 1.6 11.6574 1.6C12.423 1.6 12.9894 1.79336 13.3566 2.18008C13.7238 2.5668 13.9074 3.15469 13.9074 3.94375V5.59609C13.9074 6.06484 13.9855 6.40469 14.1418 6.61562C14.298 6.82656 14.5578 6.95937 14.9211 7.01406C15.1242 7.04531 15.2746 7.11758 15.3723 7.23086C15.4738 7.34023 15.5246 7.47695 15.5246 7.64101ZM5.42303 8.48476C5.18866 8.48476 4.98749 8.40273 4.81952 8.23867C4.65546 8.0707 4.57343 7.87148 4.57343 7.64101C4.57343 7.40664 4.65546 7.20742 4.81952 7.04336C4.98749 6.87539 5.18866 6.7914 5.42303 6.7914C5.6535 6.7914 5.85272 6.87539 6.02069 7.04336C6.18866 7.20742 6.27264 7.40664 6.27264 7.64101C6.27264 7.87148 6.18866 8.0707 6.02069 8.23867C5.85663 8.40273 5.65741 8.48476 5.42303 8.48476ZM8.1535 8.48476C7.92303 8.48476 7.72382 8.40273 7.55585 8.23867C7.39178 8.0707 7.30975 7.87148 7.30975 7.64101C7.30975 7.40664 7.39178 7.20742 7.55585 7.04336C7.72382 6.87539 7.92303 6.7914 8.1535 6.7914C8.38788 6.7914 8.5871 6.87539 8.75116 7.04336C8.91913 7.20742 9.00311 7.40664 9.00311 7.64101C9.00311 7.87148 8.91913 8.0707 8.75116 8.23867C8.5871 8.40273 8.38788 8.48476 8.1535 8.48476ZM10.8898 8.48476C10.6555 8.48476 10.4543 8.40273 10.2863 8.23867C10.1223 8.0707 10.0402 7.87148 10.0402 7.64101C10.0402 7.40664 10.1223 7.20742 10.2863 7.04336C10.4543 6.87539 10.6555 6.7914 10.8898 6.7914C11.1242 6.7914 11.3234 6.87539 11.4875 7.04336C11.6555 7.20742 11.7394 7.40664 11.7394 7.64101C11.7394 7.87148 11.6555 8.0707 11.4875 8.23867C11.3234 8.40273 11.1242 8.48476 10.8898 8.48476Z" fill="#7E7E7E"/>
</svg>
