<svg width="20" height="20" viewBox="0 0 20 20" fill="none" xmlns="http://www.w3.org/2000/svg">
<path d="M3.99302 18.8195C3.11917 18.8195 2.45945 18.5996 2.01385 18.1597C1.57403 17.7199 1.35413 17.0718 1.35413 16.2153V7.7778C1.35413 6.90974 1.57403 6.2587 2.01385 5.82467C2.45945 5.38486 3.11917 5.16495 3.99302 5.16495H15.9982C16.8721 5.16495 17.5289 5.38486 17.9687 5.82467C18.4143 6.26449 18.6371 6.91553 18.6371 7.7778V16.2153C18.6371 17.0718 18.4143 17.7199 17.9687 18.1597C17.5289 18.5996 16.8721 18.8195 15.9982 18.8195H3.99302ZM4.05378 17.3438H15.9288C16.3223 17.3438 16.6261 17.2396 16.8402 17.0313C17.0544 16.8287 17.1614 16.5191 17.1614 16.1025V7.88197C17.1614 7.47109 17.0544 7.16148 16.8402 6.95315C16.6261 6.74481 16.3223 6.64065 15.9288 6.64065H4.05378C3.66026 6.64065 3.35933 6.74481 3.151 6.95315C2.94267 7.16148 2.8385 7.47109 2.8385 7.88197V16.1025C2.8385 16.5191 2.94267 16.8287 3.151 17.0313C3.35933 17.2396 3.66026 17.3438 4.05378 17.3438ZM3.13364 3.82815C3.18572 3.4462 3.31304 3.15396 3.51558 2.95141C3.72392 2.74308 4.0422 2.63891 4.47045 2.63891H15.5295C15.9519 2.63891 16.2644 2.74308 16.467 2.95141C16.6753 3.15396 16.8113 3.4462 16.875 3.82815H3.13364ZM4.80899 1.51044C4.83792 1.15164 4.95366 0.87965 5.15621 0.694465C5.36454 0.50928 5.66258 0.416687 6.05031 0.416687H13.9496C14.3373 0.416687 14.6354 0.50928 14.8437 0.694465C15.052 0.87965 15.1678 1.15164 15.1909 1.51044H4.80899ZM4.94788 18.0035C5.06362 17.4942 5.27195 17.0255 5.57288 16.5972C5.8738 16.169 6.24707 15.7986 6.69267 15.4861C7.13827 15.1678 7.64174 14.9219 8.20308 14.7483C8.77021 14.5747 9.36917 14.4879 9.99996 14.4879C10.6365 14.4879 11.2326 14.5747 11.7882 14.7483C12.3495 14.9219 12.8559 15.1678 13.3073 15.4861C13.7586 15.7986 14.1348 16.169 14.4357 16.5972C14.7366 17.0255 14.9421 17.4942 15.052 18.0035H4.94788ZM9.99996 13.2726C9.52542 13.2668 9.09718 13.1424 8.71524 12.8993C8.33329 12.6563 8.02947 12.3293 7.80378 11.9184C7.57808 11.5018 7.46234 11.0272 7.45656 10.4948C7.45656 10.0029 7.5694 9.55153 7.7951 9.14065C8.02079 8.72398 8.32461 8.39122 8.70656 8.14238C9.09429 7.89354 9.52542 7.76912 9.99996 7.76912C10.4745 7.76912 10.9027 7.89354 11.2847 8.14238C11.6724 8.39122 11.9791 8.72398 12.2048 9.14065C12.4305 9.55153 12.5434 10.0029 12.5434 10.4948C12.5434 11.0272 12.4305 11.5047 12.2048 11.9271C11.9791 12.3438 11.6724 12.6736 11.2847 12.9167C10.9027 13.1597 10.4745 13.2784 9.99996 13.2726Z" fill="#B0B0B0"/>
</svg>
