<svg width="20" height="20" viewBox="0 0 20 20" fill="none" xmlns="http://www.w3.org/2000/svg">
<path d="M11.7485 10.2865C11.6009 10.2865 11.481 10.2383 11.3888 10.1419C11.2966 10.0409 11.2505 9.91919 11.2505 9.77686C11.2505 9.63453 11.2966 9.51515 11.3888 9.41873C11.481 9.32231 11.6009 9.27411 11.7485 9.27411H16.3688C16.5117 9.27411 16.6316 9.32231 16.7284 9.41873C16.8253 9.51515 16.8737 9.63453 16.8737 9.77686C16.8737 9.91919 16.8253 10.0409 16.7284 10.1419C16.6316 10.2383 16.5117 10.2865 16.3688 10.2865H11.7485ZM11.7485 12.6763C11.6009 12.6763 11.481 12.6304 11.3888 12.5386C11.2966 12.4421 11.2505 12.3205 11.2505 12.1736C11.2505 12.0358 11.2966 11.9164 11.3888 11.8154C11.481 11.7144 11.6009 11.6639 11.7485 11.6639H15.1169C15.2552 11.6639 15.3751 11.7144 15.4765 11.8154C15.578 11.9164 15.6287 12.0358 15.6287 12.1736C15.6287 12.3205 15.578 12.4421 15.4765 12.5386C15.3751 12.6304 15.2552 12.6763 15.1169 12.6763H11.7485ZM9.19621 14.0675H8.35238L6.09756 16.0579C5.88545 16.2461 5.70562 16.3838 5.55806 16.4711C5.41512 16.5583 5.25604 16.6019 5.08082 16.6019C4.83182 16.6019 4.64046 16.5216 4.50673 16.3609C4.37301 16.2048 4.30615 15.9913 4.30615 15.7204V14.0675H4.01565C3.37932 14.0675 2.83521 13.9504 2.38333 13.7163C1.93605 13.4775 1.59253 13.1332 1.35275 12.6832C1.11758 12.2332 1 11.6869 1 11.0441V6.02342C1 5.38522 1.11758 4.84114 1.35275 4.39118C1.58791 3.93664 1.93144 3.59229 2.38333 3.35813C2.83521 3.11938 3.38624 3 4.0364 3H12.4263C13.0764 3 13.6275 3.11938 14.0794 3.35813C14.5312 3.59229 14.8725 3.93664 15.103 4.39118C15.3382 4.84114 15.4558 5.38522 15.4558 6.02342V7.09091H14.2869V6.04408C14.2869 5.42883 14.1324 4.96281 13.8234 4.64601C13.5145 4.3292 13.0396 4.1708 12.3986 4.1708H4.06407C3.42313 4.1708 2.94819 4.3292 2.63924 4.64601C2.33491 4.96281 2.18274 5.42883 2.18274 6.04408V11.0303C2.18274 11.6455 2.33491 12.1116 2.63924 12.4284C2.94819 12.7452 3.42313 12.9036 4.06407 12.9036H4.85948C5.04393 12.9036 5.17534 12.9426 5.25373 13.0207C5.33673 13.0987 5.37823 13.2296 5.37823 13.4132V15.2865L7.46014 13.2273C7.58925 13.0941 7.71144 13.0069 7.82672 12.9656C7.94661 12.9242 8.10339 12.9036 8.29705 12.9036H8.80888L9.19621 14.0675ZM10.9738 15.5964C10.3467 15.5964 9.81871 15.4862 9.38988 15.2658C8.96105 15.05 8.63597 14.7309 8.41463 14.3085C8.1933 13.8815 8.08264 13.3627 8.08264 12.7521V9.14325C8.08264 8.52342 8.1933 8 8.41463 7.573C8.63597 7.14601 8.96105 6.82231 9.38988 6.60193C9.81871 6.38154 10.3467 6.27135 10.9738 6.27135H17.1019C17.729 6.27135 18.257 6.38154 18.6858 6.60193C19.1193 6.82231 19.4467 7.14601 19.668 7.573C19.8893 8 20 8.52342 20 9.14325V12.7452C20 13.6635 19.7533 14.3682 19.2599 14.8595C18.7711 15.3508 18.061 15.5964 17.1296 15.5964H16.9982V17.1253C16.9982 17.3871 16.929 17.5983 16.7907 17.759C16.657 17.9197 16.4702 18 16.2304 18C16.0598 18 15.8984 17.9518 15.7463 17.8554C15.5987 17.7635 15.4212 17.6304 15.2137 17.4559L13.0349 15.5964H10.9738ZM11.0291 14.4394H13.0073C13.1502 14.4394 13.2793 14.4646 13.3946 14.5152C13.5099 14.5611 13.6275 14.6391 13.7474 14.7493L15.9261 16.6983V14.9972C15.9261 14.809 15.9768 14.669 16.0783 14.5771C16.1797 14.4853 16.3065 14.4394 16.4587 14.4394H17.0397C17.6576 14.4394 18.1095 14.2925 18.3953 13.9986C18.6812 13.7002 18.8242 13.2571 18.8242 12.6694V9.19835C18.8242 8.61065 18.6812 8.16758 18.3953 7.86915C18.1095 7.57071 17.6576 7.42149 17.0397 7.42149H11.0291C10.4158 7.42149 9.96627 7.57071 9.68038 7.86915C9.39449 8.16758 9.25155 8.61065 9.25155 9.19835V12.6694C9.25155 13.2571 9.39449 13.7002 9.68038 13.9986C9.96627 14.2925 10.4158 14.4394 11.0291 14.4394Z" fill="#B0B0B0"/>
</svg>
