<svg width="16" height="10" viewBox="0 0 16 10" fill="none" xmlns="http://www.w3.org/2000/svg">
<path d="M0 8.69591C0 8.51159 0.0670062 8.35509 0.201019 8.22642C0.335031 8.09427 0.498019 8.02819 0.689983 8.02819H1.84177V1.87789C1.84177 1.47448 1.95767 1.1667 2.18947 0.954561C2.42128 0.742422 2.74001 0.636353 3.14567 0.636353H12.8543C13.2781 0.636353 13.6005 0.742422 13.8214 0.954561C14.046 1.1667 14.1582 1.47448 14.1582 1.87789V8.02819H15.31C15.502 8.02819 15.665 8.09427 15.799 8.22642C15.933 8.35509 16 8.51159 16 8.69591C16 8.87675 15.933 9.03324 15.799 9.1654C15.665 9.29755 15.502 9.36362 15.31 9.36362H0.689983C0.498019 9.36362 0.335031 9.29755 0.201019 9.1654C0.0670062 9.03324 0 8.87675 0 8.69591ZM2.90662 8.02819H13.0934V2.14915C13.0934 1.98222 13.0499 1.85876 12.963 1.77877C12.8797 1.69879 12.7547 1.65879 12.5881 1.65879H3.41188C3.24527 1.65879 3.11851 1.69879 3.03158 1.77877C2.94827 1.85876 2.90662 1.98222 2.90662 2.14915V8.02819Z" fill="#B0B0B0"/>
</svg>
