<svg width="14" height="16" viewBox="0 0 14 16" fill="none" xmlns="http://www.w3.org/2000/svg">
<path d="M2.51457 10.0575C1.93905 10.0575 1.50439 9.91261 1.21059 9.62284C0.916796 9.32904 0.769897 8.90042 0.769897 8.33697V1.95593C0.769897 1.39249 0.916796 0.963863 1.21059 0.670066C1.50842 0.376269 1.94307 0.22937 2.51457 0.22937H11.4734C12.0529 0.22937 12.4896 0.376269 12.7834 0.670066C13.0772 0.959839 13.2241 1.38846 13.2241 1.95593V8.33697C13.2241 8.90042 13.0772 9.32904 12.7834 9.62284C12.4896 9.91261 12.0529 10.0575 11.4734 10.0575H2.51457ZM2.58098 8.96481H11.419C11.6525 8.96481 11.8296 8.90444 11.9503 8.7837C12.0751 8.65894 12.1374 8.47783 12.1374 8.24038V2.05252C12.1374 1.80702 12.0751 1.62189 11.9503 1.49713C11.8296 1.37236 11.6525 1.30998 11.419 1.30998H2.58098C2.34352 1.30998 2.16242 1.37236 2.03765 1.49713C1.91691 1.62189 1.85655 1.80702 1.85655 2.05252V8.24038C1.85655 8.48588 1.91691 8.669 2.03765 8.78974C2.16242 8.90645 2.34352 8.96481 2.58098 8.96481ZM12.6506 8.02909C12.6707 8.53216 12.552 8.91651 12.2944 9.18214C12.0368 9.44776 11.6464 9.58058 11.1232 9.58058H2.64135C2.20669 9.58058 1.87667 9.45783 1.65129 9.21232C1.42994 8.9628 1.31322 8.59857 1.30115 8.11964L3.26315 6.35082C3.37584 6.2502 3.48652 6.17575 3.59518 6.12745C3.70385 6.07513 3.81654 6.04897 3.93325 6.04897C4.06204 6.04897 4.1868 6.07513 4.30754 6.12745C4.42828 6.17575 4.54298 6.2502 4.65164 6.35082L5.61755 7.22617L7.97799 5.11325C8.09873 5.00861 8.2235 4.93013 8.35228 4.87781C8.48107 4.82549 8.6159 4.79933 8.75676 4.79933C8.89762 4.79933 9.03647 4.8275 9.17331 4.88384C9.31014 4.93616 9.43692 5.01464 9.55363 5.11928L12.6506 8.02909ZM4.85086 5.24002C4.62146 5.24002 4.41017 5.18368 4.21699 5.07099C4.02783 4.95428 3.87691 4.80134 3.76422 4.61218C3.65153 4.419 3.59518 4.20771 3.59518 3.9783C3.59518 3.7489 3.65153 3.53962 3.76422 3.35046C3.87691 3.15728 4.02783 3.00435 4.21699 2.89166C4.41017 2.77897 4.62146 2.72262 4.85086 2.72262C5.08027 2.72262 5.28955 2.77897 5.4787 2.89166C5.66786 3.00435 5.81878 3.15728 5.93147 3.35046C6.04819 3.53962 6.10655 3.7489 6.10655 3.9783C6.10655 4.32442 5.98178 4.62224 5.73226 4.87177C5.48675 5.11727 5.19296 5.24002 4.85086 5.24002ZM1.30115 12.925C1.15224 12.925 1.02546 12.8727 0.920821 12.7681C0.820205 12.6675 0.769897 12.5427 0.769897 12.3938C0.769897 12.2489 0.820205 12.1241 0.920821 12.0195C1.02546 11.9149 1.15224 11.8625 1.30115 11.8625H12.6868C12.8357 11.8625 12.9625 11.9149 13.0671 12.0195C13.1718 12.1241 13.2241 12.2489 13.2241 12.3938C13.2241 12.5427 13.1718 12.6675 13.0671 12.7681C12.9625 12.8727 12.8357 12.925 12.6868 12.925H1.30115ZM1.30115 15.7926C1.15224 15.7926 1.02546 15.7423 0.920821 15.6417C0.820205 15.541 0.769897 15.4143 0.769897 15.2613C0.769897 15.1124 0.820205 14.9856 0.920821 14.881C1.02546 14.7804 1.15224 14.7301 1.30115 14.7301H8.80505C8.95396 14.7301 9.07873 14.7804 9.17934 14.881C9.28398 14.9856 9.3363 15.1124 9.3363 15.2613C9.3363 15.4143 9.28398 15.541 9.17934 15.6417C9.07873 15.7423 8.95396 15.7926 8.80505 15.7926H1.30115Z" fill="#B0B0B0"/>
</svg>
